<?xml version="1.0" encoding="utf-8"?>
<!-- Generator: Adobe Illustrator 17.0.0, SVG Export Plug-In . SVG Version: 6.00 Build 0)  -->
<!DOCTYPE svg PUBLIC "-//W3C//DTD SVG 1.1//EN" "http://www.w3.org/Graphics/SVG/1.1/DTD/svg11.dtd">
<svg version="1.1"
	 id="svg1313" xmlns:dc="http://purl.org/dc/elements/1.1/" xmlns:cc="http://web.resource.org/cc/" xmlns:rdf="http://www.w3.org/1999/02/22-rdf-syntax-ns#" xmlns:svg="http://www.w3.org/2000/svg" xmlns:sodipodi="http://inkscape.sourceforge.net/DTD/sodipodi-0.dtd" xmlns:inkscape="http://www.inkscape.org/namespaces/inkscape" sodipodi:docname="lambda_lc.svg" sodipodi:version="0.32" sodipodi:docbase="C:\Documents and Settings\Lukas\Desktop\Wikipedia" inkscape:version="0.42.2"
	 xmlns="http://www.w3.org/2000/svg" xmlns:xlink="http://www.w3.org/1999/xlink" x="0px" y="0px" width="300px" height="300px"
	 viewBox="0 0 300 300" enable-background="new 0 0 300 300" xml:space="preserve">
<sodipodi:namedview  inkscape:cy="134.78022" inkscape:cx="375.00000" inkscape:zoom="0.35000000" borderopacity="1.0" bordercolor="#666666" pagecolor="#ffffff" id="base" inkscape:window-y="72" inkscape:window-x="66" inkscape:window-height="510" inkscape:window-width="752" inkscape:pageshadow="2" inkscape:pageopacity="0.0" inkscape:current-layer="layer1" inkscape:document-units="px">
	</sodipodi:namedview>
<g id="layer1" inkscape:label="Layer 1" inkscape:groupmode="layer">
	<g id="g8" transform="matrix(0.237384,0.000000,0.000000,-0.237384,65.48462,354.2623)">
		<path id="path10" d="M726.818,520.736h28.592c0-83.658-13.502-144.548-40.505-182.671
			c-27.004-38.123-61.155-57.184-102.455-57.184c-33.357,0-65.391,12.443-96.101,37.328c-30.71,24.886-58.243,92.394-82.599,202.526
			l-68.303,308.158L128.769,292H-21.338l339.927,732.272c-18.002,94.777-39.711,164.933-65.126,210.469
			s-56.919,68.303-94.512,68.303c-30.18,0-56.39-11.384-78.628-34.151s-34.946-58.508-38.123-107.22H13.607
			c1.588,77.834,17.208,140.048,46.859,186.642s66.715,70.156,111.191,70.686c28.592,0,55.595-11.649,81.011-34.946
			s47.653-63.538,66.715-120.722s48.448-175.258,88.159-354.223l56.39-251.768c22.768-104.308,46.594-173.934,71.48-208.88
			c24.886-34.946,55.066-52.683,90.541-53.213C685.254,395.249,718.876,437.078,726.818,520.736z"/>
	</g>
</g>
</svg>
